<svg width="234" height="57" viewBox="0 0 234 57" fill="none" xmlns="http://www.w3.org/2000/svg">
<path d="M38.5693 56.0391H36.8994C36.3428 53.0215 35.3955 50.7168 34.0576 49.125C32.7197 47.543 31.2695 46.5078 29.707 46.0195C28.1445 45.541 26.499 45.3018 24.7705 45.3018H12.29C7.03613 45.3018 3.49609 48.8809 1.66992 56.0391H0L0.65918 44.1006H3.00293C4.2627 44.1006 5.37109 43.7197 6.32812 42.958C7.28516 42.1963 8.13477 40.7168 8.87695 38.5195C9.62891 36.3223 10.2148 33.1045 10.6348 28.8662C11.0645 24.6279 11.2793 13.1055 11.2793 6.29883C11.2793 5.12695 11.1719 4.2041 10.957 3.53027C10.7422 2.85645 10.2148 2.30957 9.375 1.88965C8.54492 1.45996 7.28027 1.21094 5.58105 1.14258V0H37.3828V1.14258H32.7539V44.1006H38.1006L38.5693 56.0391ZM26.0303 44.1006V1.14258H18.8965C17.3633 1.14258 16.2158 1.26465 15.4541 1.50879C14.7021 1.74316 14.0967 2.30957 13.6377 3.20801C13.1787 4.10645 12.8223 5.44922 12.5684 7.23633C12.3242 9.01367 12.0752 11.8018 11.8213 15.6006C11.5186 20.0342 11.1621 29.6865 10.752 32.5576C10.3516 35.4189 9.93652 37.626 9.50684 39.1787C9.07715 40.7217 8.67188 41.8203 8.29102 42.4746C7.91016 43.1191 7.48535 43.6611 7.0166 44.1006H26.0303Z" fill="white"/>
<path d="M65.625 44.1006L61.1865 31.9863H49.4238L47.2705 37.3184C47.1729 37.5625 47.0215 37.9287 46.8164 38.417C46.6211 38.8955 46.4551 39.374 46.3184 39.8525C46.1914 40.3213 46.1279 40.7998 46.1279 41.2881C46.1279 42.2256 46.3916 42.9092 46.9189 43.3389C47.4561 43.7588 48.4717 44.0127 49.9658 44.1006V45.3018H39.7705V44.1006C41.001 44.0225 42.041 43.5586 42.8906 42.709C43.75 41.8496 44.3506 40.9561 44.6924 40.0283L57.9492 0H59.0332L72.7148 44.1006H76.7871V45.3018H60.293V44.1006H65.625ZM60.7764 30.7852L55.6055 9.90234L49.7314 30.7852H60.7764Z" fill="white"/>
<path d="M83.9355 44.1006V1.14258H79.3213V0H96.6064C97.9932 0 99.4873 0.126953 101.089 0.380859C102.69 0.625 104.326 1.14258 105.996 1.93359C107.676 2.71484 109.087 3.92578 110.229 5.56641C111.257 7.02021 111.826 8.86592 111.938 11.1035C111.951 11.376 111.958 11.6543 111.958 11.9385C111.958 12.2845 111.944 18.6263 111.917 18.9639C111.706 21.6078 110.665 23.9906 108.794 26.1123C106.694 28.5049 102.612 29.7012 96.5479 29.7012H90.6592V44.1006H95.2881V45.3018H79.3213V44.1006H83.9355ZM90.6592 28.5586H94.8047C98.7012 28.5586 101.265 27.665 102.495 25.8779C103.726 24.0811 104.36 21.7764 104.399 18.9639V11.1035C104.38 9.27734 104.209 7.69043 103.887 6.34277C103.564 4.98535 102.7 3.7793 101.294 2.72461C99.8975 1.66992 97.7344 1.14258 94.8047 1.14258H90.6592V28.5586Z" fill="white"/>
<path d="M128.335 38.3438L146.03 5.09766V1.20117H141.841V0H157.383V1.20117H152.754V44.1006H157.383V45.3018H141.841V44.1006H146.03V7.26562L128.335 40.8047V44.1006H132.539V45.3018H116.997V44.1006H121.611V1.20117H116.997V0H132.539V1.20117H128.335V38.3438Z" fill="white"/>
<path d="M175.547 44.1006V1.14258C172.676 1.14258 170.376 1.50391 168.647 2.22656C166.919 2.94922 165.601 4.12598 164.692 5.75684C163.784 7.37793 163.184 9.58008 162.891 12.3633H161.206L161.514 0H196.304L196.611 12.3633H194.927C194.595 9.47266 193.979 7.22656 193.081 5.625C192.192 4.01367 190.894 2.86621 189.185 2.18262C187.476 1.48926 185.171 1.14258 182.271 1.14258V44.1006H186.885V45.3018H170.933V44.1006H175.547Z" fill="white"/>
<path d="M211.772 23.5781H217.002C227.676 23.5781 233.013 27.04 233.013 33.9639C233.013 38.7881 231.509 41.8838 228.501 43.251C225.503 44.6182 221.89 45.3018 217.661 45.3018H200.435V44.1006H205.049V1.14258H200.435V0H216.401V1.14258H211.772V23.5781ZM211.772 44.1006H219.038C221.597 44.1006 223.296 43.417 224.136 42.0498C224.976 40.6826 225.396 39.2275 225.396 37.6846L225.454 33.0557C225.454 31.1807 225.225 29.6475 224.766 28.4561C224.307 27.2549 223.472 26.332 222.261 25.6875C221.05 25.043 219.336 24.7207 217.119 24.7207H211.772V44.1006Z" fill="white"/>
<path d="M81.167 22.3232L75.4688 21.7227C75.6836 20.7266 75.9912 19.9453 76.3916 19.3789C76.8018 18.8027 77.3877 18.3047 78.1494 17.8848C78.6963 17.582 79.4482 17.3477 80.4053 17.1816C81.3623 17.0156 82.3975 16.9326 83.5107 16.9326C85.2979 16.9326 86.7334 17.0352 87.8174 17.2402C88.9014 17.4355 89.8047 17.8506 90.5273 18.4854C91.0352 18.9248 91.4355 19.5498 91.7285 20.3604C92.0215 21.1611 92.168 21.9277 92.168 22.6602V29.5303C92.168 30.2627 92.2119 30.8389 92.2998 31.2588C92.3975 31.6689 92.6025 32.1963 92.915 32.8408H87.3193C87.0947 32.4404 86.9482 32.1377 86.8799 31.9326C86.8115 31.7178 86.7432 31.3857 86.6748 30.9365C85.8936 31.6885 85.1172 32.2256 84.3457 32.5479C83.291 32.9775 82.0654 33.1924 80.6689 33.1924C78.8135 33.1924 77.4023 32.7627 76.4355 31.9033C75.4785 31.0439 75 29.9844 75 28.7246C75 27.543 75.3467 26.5713 76.04 25.8096C76.7334 25.0479 78.0127 24.4814 79.8779 24.1104C82.1143 23.6611 83.5645 23.3486 84.2285 23.1729C84.8926 22.9873 85.5957 22.748 86.3379 22.4551C86.3379 21.7227 86.1865 21.21 85.8838 20.917C85.5811 20.624 85.0488 20.4775 84.2871 20.4775C83.3105 20.4775 82.5781 20.6338 82.0898 20.9463C81.709 21.1904 81.4014 21.6494 81.167 22.3232ZM86.3379 25.458C85.5176 25.751 84.6631 26.0098 83.7744 26.2344C82.5635 26.5566 81.7969 26.874 81.4746 27.1865C81.1426 27.5088 80.9766 27.875 80.9766 28.2852C80.9766 28.7539 81.1377 29.1396 81.46 29.4424C81.792 29.7354 82.2754 29.8818 82.9102 29.8818C83.5742 29.8818 84.1895 29.7207 84.7559 29.3984C85.332 29.0762 85.7373 28.6855 85.9717 28.2266C86.2158 27.7578 86.3379 27.1523 86.3379 26.4102V25.458Z" fill="#FF007F"/>
<path d="M120.909 32.8408H114.933V27.1133C113.429 28.0117 111.803 28.4609 110.055 28.4609C106.315 28.4609 104.445 26.4688 104.445 22.4844V17.2988H110.406V21.5615C110.406 22.2646 110.568 22.8164 110.89 23.2168C111.212 23.6172 111.661 23.8174 112.238 23.8174C113.351 23.8174 114.249 23.3633 114.933 22.4551V17.2988H120.909V32.8408Z" fill="#FF007F"/>
<path d="M141.096 26.542H129.142C129.25 27.499 129.509 28.2119 129.919 28.6807C130.495 29.3545 131.247 29.6914 132.175 29.6914C132.761 29.6914 133.317 29.5449 133.845 29.252C134.167 29.0664 134.513 28.7393 134.885 28.2705L140.759 28.8125C139.86 30.375 138.776 31.498 137.507 32.1816C136.237 32.8555 134.416 33.1924 132.043 33.1924C129.982 33.1924 128.361 32.9043 127.179 32.3281C125.998 31.7422 125.016 30.8193 124.235 29.5596C123.464 28.29 123.078 26.8008 123.078 25.0918C123.078 22.6602 123.854 20.6924 125.407 19.1885C126.97 17.6846 129.123 16.9326 131.867 16.9326C134.094 16.9326 135.851 17.2695 137.14 17.9434C138.429 18.6172 139.411 19.5938 140.085 20.873C140.759 22.1523 141.096 23.8174 141.096 25.8682V26.542ZM135.031 23.6855C134.914 22.5332 134.601 21.708 134.094 21.21C133.596 20.7119 132.936 20.4629 132.116 20.4629C131.169 20.4629 130.412 20.8389 129.846 21.5908C129.484 22.0596 129.255 22.7578 129.157 23.6855H135.031ZM127.004 11.6592H130.812V15.3213H127.004V11.6592ZM133.215 11.6592H137.067V15.3213H133.215V11.6592Z" fill="#FF007F"/>
<path d="M152.932 26.1025H147.366V25.5459C147.366 24.5986 147.473 23.832 147.688 23.2461C147.903 22.6504 148.22 22.1084 148.64 21.6201C149.07 21.1318 150.027 20.2725 151.511 19.042C152.302 18.3975 152.698 17.8066 152.698 17.2695C152.698 16.7324 152.537 16.3174 152.214 16.0244C151.902 15.7217 151.423 15.5703 150.779 15.5703C150.085 15.5703 149.509 15.7998 149.05 16.2588C148.601 16.7178 148.313 17.5186 148.186 18.6611L142.502 17.958C142.698 15.8682 143.454 14.1885 144.773 12.9189C146.101 11.6396 148.132 11 150.867 11C152.996 11 154.714 11.4443 156.023 12.333C157.8 13.5342 158.689 15.1357 158.689 17.1377C158.689 17.9678 158.459 18.7686 158 19.54C157.541 20.3115 156.604 21.2539 155.188 22.3672C154.202 23.1484 153.577 23.7783 153.313 24.2568C153.059 24.7256 152.932 25.3408 152.932 26.1025ZM147.175 27.582H153.137V32.8408H147.175V27.582Z" fill="#FF007F"/>
</svg>
